<svg width="48" height="48" viewBox="0 0 48 48" fill="none" xmlns="http://www.w3.org/2000/svg">
<rect width="48" height="48" rx="24" fill="black"/>
<path d="M29.25 21.75C29.25 19.7609 28.4598 17.8532 27.0533 16.4467C25.6468 15.0402 23.7391 14.25 21.75 14.25C19.7609 14.25 17.8532 15.0402 16.4467 16.4467C15.0402 17.8532 14.25 19.7609 14.25 21.75C14.25 23.7391 15.0402 25.6468 16.4467 27.0533C17.8532 28.4598 19.7609 29.25 21.75 29.25C23.7391 29.25 25.6468 28.4598 27.0533 27.0533C28.4598 25.6468 29.25 23.7391 29.25 21.75ZM27.8016 29.3953C26.1422 30.7125 24.0375 31.5 21.75 31.5C16.3641 31.5 12 27.1359 12 21.75C12 16.3641 16.3641 12 21.75 12C27.1359 12 31.5 16.3641 31.5 21.75C31.5 24.0375 30.7125 26.1422 29.3953 27.8016L35.2078 33.6141L36.0047 34.4109L34.4109 36L33.6141 35.2031L27.8016 29.3906V29.3953Z" fill="#EDA619"/>
</svg>
