<svg width="49" height="49" viewBox="0 0 49 49" fill="none" xmlns="http://www.w3.org/2000/svg">
<rect x="0.339844" y="0.390137" width="48" height="48" rx="24" fill="black"/>
<path d="M29.5898 22.1401C29.5898 20.151 28.7997 18.2434 27.3931 16.8368C25.9866 15.4303 24.079 14.6401 22.0898 14.6401C20.1007 14.6401 18.1931 15.4303 16.7865 16.8368C15.38 18.2434 14.5898 20.151 14.5898 22.1401C14.5898 24.1293 15.38 26.0369 16.7865 27.4434C18.1931 28.85 20.1007 29.6401 22.0898 29.6401C24.079 29.6401 25.9866 28.85 27.3931 27.4434C28.7997 26.0369 29.5898 24.1293 29.5898 22.1401ZM28.1414 29.7854C26.482 31.1026 24.3773 31.8901 22.0898 31.8901C16.7039 31.8901 12.3398 27.5261 12.3398 22.1401C12.3398 16.7542 16.7039 12.3901 22.0898 12.3901C27.4758 12.3901 31.8398 16.7542 31.8398 22.1401C31.8398 24.4276 31.0523 26.5323 29.7352 28.1917L35.5477 34.0042L36.3445 34.8011L34.7508 36.3901L33.9539 35.5933L28.1414 29.7808V29.7854Z" fill="#EDA619"/>
</svg>
