<svg width="70" height="65" viewBox="0 0 70 65" fill="none" xmlns="http://www.w3.org/2000/svg">
<path d="M19.2965 3.15606C19.4202 3.09539 21.5849 2.3673 24.1207 1.57854C26.6564 0.729101 28.9448 0.0616881 29.2541 0.00101416C29.5014 -0.0596598 30.6147 2.60999 31.728 5.88639C33.3979 10.8617 33.9545 11.7718 35.1296 11.9538C36.3666 12.0751 36.6758 11.4684 38.4075 6.18976C39.5208 2.91336 40.3867 0.183036 40.4485 0.122362C40.4485 0.0616881 42.7987 0.668428 45.6437 1.51786C48.4887 2.30662 50.7153 3.33808 50.7153 3.7628C50.7153 4.12684 50.0349 6.5538 49.1691 9.04143C48.3032 11.5291 47.6229 14.1987 47.6229 14.9875C47.6229 15.7156 48.0558 16.4437 48.5506 16.6257C49.0454 16.8077 51.7667 15.3515 54.6117 13.3493C57.3948 11.347 59.8069 9.83019 59.9925 9.89087C60.178 10.0122 61.6005 11.8931 63.2704 14.138C64.8784 16.3223 66.1772 18.2639 66.1772 18.4459C66.1772 18.6279 63.9507 20.3268 61.1676 22.2684C57.4567 24.8773 56.2816 26.0301 56.4053 26.9402C56.5908 28.0324 57.1474 28.1537 69.8881 28.4571V39.3784H0V28.4571H6.37033C11.3182 28.5178 12.8644 28.3357 13.421 27.547C13.9158 27.0009 14.0395 26.3335 13.6684 25.9088C13.3591 25.4841 11.0089 23.6032 8.47316 21.783C4.2675 18.8099 3.83457 18.3245 4.45305 17.2324C4.82414 16.565 6.30848 14.5628 7.66914 12.8032C9.89566 10.0122 10.3286 9.70885 11.2563 10.3763C11.8748 10.801 14.2869 12.5605 16.6989 14.1987C20.5953 16.929 21.152 17.1111 22.0178 16.3223C22.8837 15.5335 22.76 14.8055 21.0283 9.3448C19.9769 6.00773 19.1728 3.21673 19.2965 3.15606Z" fill="#EF420E"/>
<path d="M13.0499 49.7537C12.9262 47.9941 12.9881 46.1132 13.1736 45.6885C13.4828 44.9604 17.4411 44.8391 56.2816 44.8391V53.3334L13.2973 53.03L13.0499 49.7537Z" fill="#EF420E"/>
<path d="M26.5946 64.2547V61.5244V58.7941H43.2935L42.9843 63.9514L26.5946 64.2547Z" fill="#EF420E"/>
</svg>
