<svg width="50" height="49" viewBox="0 0 50 49" fill="none" xmlns="http://www.w3.org/2000/svg">
<path d="M21.3168 0.410034H22.1605H28.1605H29.0043L29.4449 1.13191L38.2949 15.6725L39.3355 10.61L39.6355 9.13816L42.5699 9.74753L42.2699 11.2194L40.4512 20.0694L40.1137 21.7194L38.5105 21.185L29.9418 18.335L28.5168 17.8663L29.4637 15.0163L30.8887 15.485L35.623 17.06L27.3168 3.41003H23.0043L18.1855 11.3225L15.6168 9.78503L20.8762 1.13191L21.3168 0.410034ZM40.6668 25.3475L43.2355 23.8007L48.9262 33.1569L49.423 33.9819L48.8793 34.7788L45.1855 40.2538L44.7355 40.91H43.9387H26.098L29.8949 44.285L31.0199 45.2788L29.023 47.5194L27.898 46.5257L21.148 40.5257L19.8824 39.4007L21.148 38.2757L27.898 32.2757L29.023 31.2819L31.0199 33.5225L29.8949 34.5163L26.1074 37.91H43.1605L45.8793 33.8975L40.6668 25.3475ZM10.6574 17.9319L5.3793 19.6757L3.9543 20.1444L3.0168 17.3038L4.4418 16.835L13.0105 13.985L14.6137 13.4507L14.9512 15.1007L16.7699 23.9507L17.0699 25.4225L14.1355 26.0319L13.8355 24.56L12.898 20.0225L4.45117 33.9069L7.16992 37.9194H16.1605V40.9194L6.37305 40.91H5.57617L5.12617 40.2538L1.43242 34.7882L0.888672 33.9913L1.38555 33.1663L10.6574 17.9225V17.9319Z" fill="white"/>
</svg>
