<svg width="49" height="49" viewBox="0 0 49 49" fill="none" xmlns="http://www.w3.org/2000/svg">
<path d="M17.6301 7.61008C18.5756 7.61008 19.5119 7.79632 20.3854 8.15815C21.2589 8.51998 22.0527 9.05033 22.7212 9.71891C23.3898 10.3875 23.9202 11.1812 24.282 12.0548C24.6438 12.9283 24.8301 13.8646 24.8301 14.8101C24.8301 15.7556 24.6438 16.6919 24.282 17.5654C23.9202 18.4389 23.3898 19.2327 22.7212 19.9013C22.0527 20.5698 21.2589 21.1002 20.3854 21.462C19.5119 21.8238 18.5756 22.0101 17.6301 22.0101C16.6846 22.0101 15.7483 21.8238 14.8748 21.462C14.0012 21.1002 13.2075 20.5698 12.5389 19.9013C11.8703 19.2327 11.34 18.4389 10.9781 17.5654C10.6163 16.6919 10.4301 15.7556 10.4301 14.8101C10.4301 13.8646 10.6163 12.9283 10.9781 12.0548C11.34 11.1812 11.8703 10.3875 12.5389 9.71891C13.2075 9.05033 14.0012 8.51998 14.8748 8.15815C15.7483 7.79632 16.6846 7.61008 17.6301 7.61008ZM17.6301 24.4101C20.1762 24.4101 22.618 23.3987 24.4183 21.5983C26.2187 19.798 27.2301 17.3562 27.2301 14.8101C27.2301 12.264 26.2187 9.82221 24.4183 8.02186C22.618 6.22151 20.1762 5.21008 17.6301 5.21008C15.084 5.21008 12.6422 6.22151 10.8419 8.02186C9.0415 9.82221 8.03008 12.264 8.03008 14.8101C8.03008 17.3562 9.0415 19.798 10.8419 21.5983C12.6422 23.3987 15.084 24.4101 17.6301 24.4101ZM7.40008 30.4101H27.8601L31.1826 41.2101H4.07758L7.40008 30.4101ZM29.6301 28.0101H5.63008L1.56508 41.2101L0.830078 43.6101H3.34258H31.9176H34.4301L33.6951 41.2101L29.6301 28.0101ZM46.3026 43.6101H48.8301L48.0276 41.2101L44.0301 29.2101H32.5101L33.2451 31.6101H42.2976L45.5001 41.2101H36.2001L36.7251 42.9051L36.9426 43.6101H46.3026ZM33.2301 24.4101C37.8726 24.4101 41.6301 20.6526 41.6301 16.0101C41.6301 11.3676 37.8726 7.61008 33.2301 7.61008C31.3701 7.61008 29.6526 8.21758 28.2576 9.23758C28.6476 9.97258 28.9551 10.7601 29.1876 11.5776C30.2526 10.6026 31.6701 10.0101 33.2301 10.0101C36.5451 10.0101 39.2301 12.6951 39.2301 16.0101C39.2301 19.3251 36.5451 22.0101 33.2301 22.0101C31.3401 22.0101 29.6601 21.1401 28.5576 19.7751C28.2051 20.5476 27.7776 21.2676 27.2826 21.9426C28.8051 23.4651 30.9051 24.4101 33.2301 24.4101Z" fill="white"/>
</svg>
