<svg width="25" height="25" viewBox="0 0 25 25" fill="none" xmlns="http://www.w3.org/2000/svg">
<path d="M16.25 6.37988C16.25 5.38532 15.8549 4.43149 15.1517 3.72823C14.4484 3.02497 13.4946 2.62988 12.5 2.62988C11.5054 2.62988 10.5516 3.02497 9.84835 3.72823C9.14509 4.43149 8.75 5.38532 8.75 6.37988C8.75 7.37444 9.14509 8.32827 9.84835 9.03153C10.5516 9.73479 11.5054 10.1299 12.5 10.1299C13.4946 10.1299 14.4484 9.73479 15.1517 9.03153C15.8549 8.32827 16.25 7.37444 16.25 6.37988ZM6.5 6.37988C6.5 4.78858 7.13214 3.26246 8.25736 2.13724C9.38258 1.01202 10.9087 0.379883 12.5 0.379883C14.0913 0.379883 15.6174 1.01202 16.7426 2.13724C17.8679 3.26246 18.5 4.78858 18.5 6.37988C18.5 7.97118 17.8679 9.49731 16.7426 10.6225C15.6174 11.7477 14.0913 12.3799 12.5 12.3799C10.9087 12.3799 9.38258 11.7477 8.25736 10.6225C7.13214 9.49731 6.5 7.97118 6.5 6.37988ZM5.04688 22.1299H19.9531L18.3359 16.8799H6.66406L5.04688 22.1299ZM5 14.6299H20L22.3063 22.1299L23 24.3799H20.6469H4.35313H2L2.69375 22.1299L5 14.6299Z" fill="black"/>
</svg>
