<svg width="49" height="49" viewBox="0 0 49 49" fill="none" xmlns="http://www.w3.org/2000/svg">
<path d="M24.5 3.41003C29.4688 3.41003 33.5 7.44128 33.5 12.41V18.41H15.5V12.41C15.5 7.44128 19.5312 3.41003 24.5 3.41003ZM12.5 12.41V18.41H6.5H3.5V21.41V45.41V48.41H6.5H42.5H45.5V45.41V21.41V18.41H42.5H36.5V12.41C36.5 5.78191 31.1281 0.410034 24.5 0.410034C17.8719 0.410034 12.5 5.78191 12.5 12.41ZM6.5 21.41H42.5V45.41H6.5V21.41ZM26 29.66V28.16H23V29.66V37.16V38.66H26V37.16V29.66Z" fill="white"/>
</svg>
