<svg width="49" height="49" viewBox="0 0 49 49" fill="none" xmlns="http://www.w3.org/2000/svg">
<path d="M24.1602 21.3134L6.72682 13.5634L24.1602 5.8134L41.5935 13.5634L24.1602 21.3134ZM44.8768 12.1051L24.1602 2.89673L3.44349 12.1051L0.160156 13.5634L3.44349 15.0217L24.1602 24.2301L44.8768 15.0217L48.1602 13.5634L44.8768 12.1051ZM12.1602 21.8134L8.87682 20.3551L3.44349 22.7717L0.160156 24.2301L3.44349 25.6884L24.1602 34.8967L44.8768 25.6884L48.1602 24.2301L44.8768 22.7717L39.4435 20.3551L36.1602 21.8134L41.5935 24.2301L24.1602 31.9801L6.72682 24.2301L12.1602 21.8134ZM8.87682 31.0217L3.44349 33.4384L0.160156 34.8967L3.44349 36.3551L24.1602 45.5634L44.8768 36.3551L48.1602 34.8967L44.8768 33.4384L39.4435 31.0217L36.1602 32.4801L41.5935 34.8967L24.1602 42.6467L6.72682 34.8967L12.1602 32.4801L8.87682 31.0217Z" fill="white"/>
</svg>
