<svg width="49" height="49" viewBox="0 0 49 49" fill="none" xmlns="http://www.w3.org/2000/svg">
<path d="M42.5 3.63013V45.6301H6.5V3.63013H42.5ZM6.5 0.630127H3.5V3.63013V45.6301V48.6301H6.5H42.5H45.5V45.6301V3.63013V0.630127H42.5H6.5ZM18.5 11.1301V14.1301H20H36.5H38V11.1301H36.5H20H18.5ZM23 23.1301V26.1301H24.5H36.5H38V23.1301H36.5H24.5H23ZM18.5 35.1301V38.1301H20H36.5H38V35.1301H36.5H20H18.5ZM14.75 10.3801H10.25V14.8801H14.75V10.3801ZM10.25 34.3801V38.8801H14.75V34.3801H10.25ZM18.8094 23.4395L19.8688 22.3801L17.75 20.2614L16.6906 21.3208L13.25 24.7614L12.0594 23.5708L11 22.5114L8.88125 24.6301L9.94062 25.6895L12.1906 27.9395L13.25 28.9989L14.3094 27.9395L18.8094 23.4395Z" fill="white"/>
</svg>
