<svg width="33" height="33" viewBox="0 0 33 33" fill="none" xmlns="http://www.w3.org/2000/svg">
<path d="M2.23828 16.1401C2.23828 8.40889 8.50703 2.14014 16.2383 2.14014C23.9695 2.14014 30.2383 8.40889 30.2383 16.1401V28.1464L22.2383 28.1401V26.1401H20.2383H14.2383H12.2383V28.1401V30.1401V32.1401H14.2383H20.2383H22.2383V30.1401L31.2383 30.1464H32.2383V29.1464V16.1401C32.2383 7.30264 25.0758 0.140137 16.2383 0.140137C7.40078 0.140137 0.238281 7.30264 0.238281 16.1401V19.1401V20.1401H2.23828V19.1401V16.1401ZM20.2383 29.1401V30.1401H14.2383V28.1401H20.2383V29.1401ZM6.23828 14.1401H10.2383V22.1401H6.23828V14.1401ZM4.23828 12.1401V14.1401V22.1401V24.1401H6.23828H10.2383H12.2383V22.1401V14.1401V12.1401H10.2383H6.23828H4.23828ZM22.2383 14.1401H26.2383V22.1401H22.2383V14.1401ZM26.2383 12.1401H22.2383H20.2383V14.1401V22.1401V24.1401H22.2383H26.2383H28.2383V22.1401V14.1401V12.1401H26.2383Z" fill="black"/>
</svg>
