<svg width="33" height="33" viewBox="0 0 33 33" fill="none" xmlns="http://www.w3.org/2000/svg">
<path d="M16.9414 2.14014C20.6544 2.14014 24.2154 3.61513 26.8409 6.24064C29.4664 8.86615 30.9414 12.4271 30.9414 16.1401C30.9414 19.8532 29.4664 23.4141 26.8409 26.0396C24.2154 28.6651 20.6544 30.1401 16.9414 30.1401C13.2284 30.1401 9.66742 28.6651 7.04191 26.0396C4.4164 23.4141 2.94141 19.8532 2.94141 16.1401C2.94141 12.4271 4.4164 8.86615 7.04191 6.24064C9.66742 3.61513 13.2284 2.14014 16.9414 2.14014ZM16.9414 32.1401C21.1849 32.1401 25.2545 30.4544 28.2551 27.4538C31.2557 24.4533 32.9414 20.3836 32.9414 16.1401C32.9414 11.8967 31.2557 7.82701 28.2551 4.82643C25.2545 1.82585 21.1849 0.140137 16.9414 0.140137C12.6979 0.140137 8.62828 1.82585 5.6277 4.82643C2.62712 7.82701 0.941406 11.8967 0.941406 16.1401C0.941406 20.3836 2.62712 24.4533 5.6277 27.4538C8.62828 30.4544 12.6979 32.1401 16.9414 32.1401ZM23.6477 12.8464L24.3539 12.1401L22.9414 10.7276L22.2352 11.4339L14.9414 18.7276L11.6477 15.4339L10.9414 14.7276L9.52891 16.1401L10.2352 16.8464L14.2352 20.8464L14.9414 21.5526L15.6477 20.8464L23.6477 12.8464Z" fill="black"/>
</svg>
