<svg width="25" height="25" viewBox="0 0 25 25" fill="none" xmlns="http://www.w3.org/2000/svg">
<path d="M9.73906 21.7314C7.17969 20.9768 5.06094 19.2002 3.85156 16.8799H7.16562C7.79375 18.9189 8.78281 20.5314 9.73906 21.7314ZM11.2953 20.0674C10.6578 19.2236 10.0156 18.1643 9.5375 16.8752H15.4625C14.9844 18.1596 14.3469 19.2189 13.7047 20.0674C13.2875 20.6205 12.8703 21.0799 12.5 21.4455C12.1297 21.0799 11.7125 20.6205 11.2953 20.0674ZM8.75 12.3799C8.75 11.5783 8.81563 10.833 8.9375 10.1299H16.0625C16.1797 10.833 16.25 11.5783 16.25 12.3799C16.25 13.1814 16.1844 13.9268 16.0625 14.6299H8.9375C8.82031 13.9268 8.75 13.1814 8.75 12.3799ZM6.65937 10.1299C6.55625 10.8377 6.5 11.5877 6.5 12.3799C6.5 13.1721 6.55625 13.9221 6.65937 14.6299H3.0125C2.84375 13.908 2.75 13.1533 2.75 12.3799C2.75 11.6064 2.83906 10.8518 3.0125 10.1299H6.65937ZM9.5375 7.87988C10.0156 6.59551 10.6531 5.53613 11.2953 4.6877C11.7125 4.13457 12.1297 3.6752 12.5 3.30957C12.8703 3.6752 13.2875 4.13457 13.7047 4.6877C14.3422 5.53145 14.9844 6.59082 15.4625 7.87988H9.5375ZM18.3406 10.1299H21.9875C22.1562 10.8518 22.25 11.6064 22.25 12.3799C22.25 13.1533 22.1609 13.908 21.9875 14.6299H18.3406C18.4438 13.9221 18.5 13.1721 18.5 12.3799C18.5 11.5877 18.4438 10.8377 18.3406 10.1299ZM21.1531 7.87988H17.8344C17.2062 5.84082 16.2172 4.22832 15.2609 3.02832C17.8203 3.78301 19.9391 5.55957 21.1484 7.87988H21.1531ZM7.16562 7.87988H3.84688C5.05625 5.55488 7.17969 3.78301 9.73438 3.02832C8.77812 4.22832 7.78906 5.84082 7.16094 7.87988H7.16562ZM15.2609 21.7314C16.2172 20.5314 17.2062 18.9189 17.8344 16.8799H21.1484C19.9391 19.2049 17.8156 20.9768 15.2609 21.7314ZM12.5 24.3799C15.6826 24.3799 18.7348 23.1156 20.9853 20.8652C23.2357 18.6147 24.5 15.5625 24.5 12.3799C24.5 9.19728 23.2357 6.14504 20.9853 3.8946C18.7348 1.64417 15.6826 0.379883 12.5 0.379883C9.3174 0.379883 6.26516 1.64417 4.01472 3.8946C1.76428 6.14504 0.5 9.19728 0.5 12.3799C0.5 15.5625 1.76428 18.6147 4.01472 20.8652C6.26516 23.1156 9.3174 24.3799 12.5 24.3799Z" fill="black"/>
</svg>
