<svg width="49" height="49" viewBox="0 0 49 49" fill="none" xmlns="http://www.w3.org/2000/svg">
<path d="M24.8301 3.15991C30.3996 3.15991 35.7411 5.37241 39.6793 9.31067C43.6176 13.2489 45.8301 18.5904 45.8301 24.1599C45.8301 29.7295 43.6176 35.0709 39.6793 39.0092C35.7411 42.9474 30.3996 45.1599 24.8301 45.1599C19.2605 45.1599 13.9191 42.9474 9.98083 39.0092C6.04257 35.0709 3.83008 29.7295 3.83008 24.1599C3.83008 18.5904 6.04257 13.2489 9.98083 9.31067C13.9191 5.37241 19.2605 3.15991 24.8301 3.15991ZM24.8301 48.1599C31.1953 48.1599 37.2998 45.6313 41.8006 41.1305C46.3015 36.6296 48.8301 30.5251 48.8301 24.1599C48.8301 17.7947 46.3015 11.6902 41.8006 7.18935C37.2998 2.68848 31.1953 0.159912 24.8301 0.159912C18.4649 0.159912 12.3604 2.68848 7.85952 7.18935C3.35864 11.6902 0.830078 17.7947 0.830078 24.1599C0.830078 30.5251 3.35864 36.6296 7.85952 41.1305C12.3604 45.6313 18.4649 48.1599 24.8301 48.1599ZM34.8895 19.2193L35.9488 18.1599L33.8301 16.0412L32.7707 17.1005L21.8301 28.0412L16.8895 23.1005L15.8301 22.0412L13.7113 24.1599L14.7707 25.2193L20.7707 31.2193L21.8301 32.2787L22.8895 31.2193L34.8895 19.2193Z" fill="white"/>
</svg>
