<svg width="49" height="49" viewBox="0 0 49 49" fill="none" xmlns="http://www.w3.org/2000/svg">
<path d="M42.8301 3.22009V45.2201H6.83008V3.22009H42.8301ZM6.83008 0.220093H3.83008V3.22009V45.2201V48.2201H6.83008H42.8301H45.8301V45.2201V3.22009V0.220093H42.8301H6.83008ZM18.8301 10.7201V13.7201H20.3301H36.8301H38.3301V10.7201H36.8301H20.3301H18.8301ZM23.3301 22.7201V25.7201H24.8301H36.8301H38.3301V22.7201H36.8301H24.8301H23.3301ZM18.8301 34.7201V37.7201H20.3301H36.8301H38.3301V34.7201H36.8301H20.3301H18.8301ZM15.0801 9.97009H10.5801V14.4701H15.0801V9.97009ZM10.5801 33.9701V38.4701H15.0801V33.9701H10.5801ZM19.1395 23.0295L20.1988 21.9701L18.0801 19.8513L17.0207 20.9107L13.5801 24.3513L12.3895 23.1607L11.3301 22.1013L9.21133 24.2201L10.2707 25.2795L12.5207 27.5295L13.5801 28.5888L14.6395 27.5295L19.1395 23.0295Z" fill="white"/>
</svg>
