<svg width="49" height="49" viewBox="0 0 49 49" fill="none" xmlns="http://www.w3.org/2000/svg">
<path d="M2 3.15991H0.5V4.65991V43.6599V45.1599H2H47H48.5V43.6599V10.6599V9.15991H47H11H9.5V12.1599H11H45.5V42.1599H3.5V6.15991H44H45.5V3.15991H44H2ZM36.5 29.4099C37.0967 29.4099 37.669 29.1729 38.091 28.7509C38.5129 28.3289 38.75 27.7566 38.75 27.1599C38.75 26.5632 38.5129 25.9909 38.091 25.5689C37.669 25.147 37.0967 24.9099 36.5 24.9099C35.9033 24.9099 35.331 25.147 34.909 25.5689C34.4871 25.9909 34.25 26.5632 34.25 27.1599C34.25 27.7566 34.4871 28.3289 34.909 28.7509C35.331 29.1729 35.9033 29.4099 36.5 29.4099Z" fill="white"/>
</svg>
