<svg width="49" height="49" viewBox="0 0 49 49" fill="none" xmlns="http://www.w3.org/2000/svg">
<path d="M42.1602 3.15991V45.1599H6.16016V3.15991H42.1602ZM6.16016 0.159912H3.16016V3.15991V45.1599V48.1599H6.16016H42.1602H45.1602V45.1599V3.15991V0.159912H42.1602H6.16016ZM18.1602 10.6599V13.6599H19.6602H36.1602H37.6602V10.6599H36.1602H19.6602H18.1602ZM22.6602 22.6599V25.6599H24.1602H36.1602H37.6602V22.6599H36.1602H24.1602H22.6602ZM18.1602 34.6599V37.6599H19.6602H36.1602H37.6602V34.6599H36.1602H19.6602H18.1602ZM14.4102 9.90991H9.91016V14.4099H14.4102V9.90991ZM9.91016 33.9099V38.4099H14.4102V33.9099H9.91016ZM18.4695 22.9693L19.5289 21.9099L17.4102 19.7912L16.3508 20.8505L12.9102 24.2912L11.7195 23.1005L10.6602 22.0412L8.54141 24.1599L9.60078 25.2193L11.8508 27.4693L12.9102 28.5287L13.9695 27.4693L18.4695 22.9693Z" fill="white"/>
</svg>
