<svg width="49" height="49" viewBox="0 0 49 49" fill="none" xmlns="http://www.w3.org/2000/svg">
<path d="M32.2812 17.9176L35.6 5.29888L36.8281 0.630127L32.9656 3.527L6.82812 23.1301V27.6301L15.1063 28.1833L18.1531 28.3895L17.375 31.3426L14.0562 43.9614L12.8281 48.6301L16.6906 45.7333L42.8281 26.1301V21.6301L34.55 21.077L31.5031 20.8708L32.2812 17.9176ZM39.8281 24.4333V24.6301L17.9188 41.0551L21.05 29.1489L21.9781 25.6333L18.3594 25.3895L9.82812 24.8176V24.6301L31.7375 8.20513L28.6062 20.1114L27.6781 23.627L31.3063 23.8708L39.8375 24.4426L39.8281 24.4333Z" fill="white"/>
</svg>
