<svg width="25" height="25" viewBox="0 0 25 25" fill="none" xmlns="http://www.w3.org/2000/svg">
<path d="M12.5 2.62988C15.0859 2.62988 17.5658 3.65711 19.3943 5.48559C21.2228 7.31407 22.25 9.79402 22.25 12.3799C22.25 14.9657 21.2228 17.4457 19.3943 19.2742C17.5658 21.1027 15.0859 22.1299 12.5 22.1299C9.91414 22.1299 7.43419 21.1027 5.60571 19.2742C3.77723 17.4457 2.75 14.9657 2.75 12.3799C2.75 9.79402 3.77723 7.31407 5.60571 5.48559C7.43419 3.65711 9.91414 2.62988 12.5 2.62988ZM12.5 24.3799C15.6826 24.3799 18.7348 23.1156 20.9853 20.8652C23.2357 18.6147 24.5 15.5625 24.5 12.3799C24.5 9.19728 23.2357 6.14504 20.9853 3.8946C18.7348 1.64417 15.6826 0.379883 12.5 0.379883C9.3174 0.379883 6.26516 1.64417 4.01472 3.8946C1.76428 6.14504 0.5 9.19728 0.5 12.3799C0.5 15.5625 1.76428 18.6147 4.01472 20.8652C6.26516 23.1156 9.3174 24.3799 12.5 24.3799ZM17.7969 10.1768L18.5938 9.37988L17 7.79082L16.2031 8.5877L11 13.7908L8.79688 11.5877L8 10.7908L6.41094 12.3799L7.20781 13.1768L10.2078 16.1768L11.0047 16.9736L11.8016 16.1768L17.7969 10.1768Z" fill="black"/>
</svg>
