<svg width="25" height="25" viewBox="0 0 25 25" fill="none" xmlns="http://www.w3.org/2000/svg">
<path d="M14.7641 18.5439L13.2687 17.6814C10.7469 16.2283 8.64688 14.1283 7.19375 11.6064L6.33125 10.1111L7.55 8.89238L9.10625 7.33613L7.34375 2.92051L2.75469 3.75488C2.95156 13.8096 11.0703 21.9236 21.125 22.1252L21.9547 17.5361L17.5391 15.7689L15.9828 17.3252L14.7641 18.5439ZM17 13.1299L24.5 16.1299L23 24.3799H21.5C9.90313 24.3799 0.5 14.9768 0.5 3.37988V1.87988L8.75 0.379883L11.75 7.87988L9.14375 10.4861C10.4 12.6658 12.2141 14.4799 14.3937 15.7361L17 13.1299Z" fill="black"/>
</svg>
