<svg width="24" height="24" viewBox="0 0 24 24" fill="none" xmlns="http://www.w3.org/2000/svg">
<path d="M18.75 9C18.75 5.27344 15.7266 2.25 12 2.25C8.27344 2.25 5.25 5.27344 5.25 9C5.25 9.76406 5.61094 10.9688 6.40781 12.5344C7.17656 14.0437 8.22656 15.6469 9.31875 17.1422C10.2703 18.45 11.2266 19.6406 12 20.5687C12.7734 19.6406 13.7297 18.45 14.6812 17.1422C15.7688 15.6469 16.8187 14.0391 17.5922 12.5344C18.3891 10.9688 18.75 9.76406 18.75 9ZM21 9C21 12.8953 16.05 19.2656 13.4906 22.2938C12.6 23.3484 12 24 12 24C12 24 11.4 23.3484 10.5094 22.2938C7.95 19.2656 3 12.8953 3 9C3 4.03125 7.03125 0 12 0C16.9688 0 21 4.03125 21 9ZM13.5 9C13.5 8.60218 13.342 8.22064 13.0607 7.93934C12.7794 7.65804 12.3978 7.5 12 7.5C11.6022 7.5 11.2206 7.65804 10.9393 7.93934C10.658 8.22064 10.5 8.60218 10.5 9C10.5 9.39782 10.658 9.77936 10.9393 10.0607C11.2206 10.342 11.6022 10.5 12 10.5C12.3978 10.5 12.7794 10.342 13.0607 10.0607C13.342 9.77936 13.5 9.39782 13.5 9ZM8.25 9C8.25 8.00544 8.64509 7.05161 9.34835 6.34835C10.0516 5.64509 11.0054 5.25 12 5.25C12.9946 5.25 13.9484 5.64509 14.6517 6.34835C15.3549 7.05161 15.75 8.00544 15.75 9C15.75 9.99456 15.3549 10.9484 14.6517 11.6517C13.9484 12.3549 12.9946 12.75 12 12.75C11.0054 12.75 10.0516 12.3549 9.34835 11.6517C8.64509 10.9484 8.25 9.99456 8.25 9Z" fill="#B1B1B4"/>
</svg>
