<svg width="33" height="33" viewBox="0 0 33 33" fill="none" xmlns="http://www.w3.org/2000/svg">
<path d="M31.3479 14.2069C31.7701 14.7346 32.0868 15.3902 32.0868 16.1402C32.0868 17.6346 30.8868 18.7569 29.7646 19.4291C28.5924 20.1346 27.1368 20.5846 25.9924 20.5846H20.4146L15.0813 29.9124L14.8257 30.3624H14.309H8.97569H7.79792L8.12014 29.2291L10.5924 20.5846H8.08681L5.68681 23.7846L5.42014 24.1402H4.97569H1.42014H0.28125L0.559028 23.0346L2.28125 16.1402L0.559028 9.24575L0.28125 8.14019H1.42014H4.97569H5.42014L5.68681 8.49575L8.08681 11.6957H10.5924L8.12014 3.0513L7.79792 1.91797H8.97569H14.309H14.8257L15.0813 2.36797L20.4146 11.6957H25.9924C27.1424 11.6957 28.5979 12.1624 29.7701 12.8735C30.3646 13.2346 30.9257 13.6791 31.3479 14.2069ZM28.8479 14.3902C27.8868 13.8069 26.7424 13.468 25.9979 13.468H19.8979H19.3813L19.1257 13.018L13.7924 3.69575H10.1535L12.6257 12.3402L12.9479 13.4735H11.7701H7.64236H7.19792L6.93125 13.118L4.53125 9.91797H2.55903L4.05903 15.9235L4.11458 16.1402L4.05903 16.3569L2.55903 22.3624H4.53125L6.93125 19.1624L7.19792 18.8069H7.64236H11.7701H12.9479L12.6257 19.9402L10.1535 28.5846H13.7924L19.1257 19.2569L19.3813 18.8069H19.8979H25.9924C26.7479 18.8069 27.8924 18.4791 28.8479 17.9069C29.8535 17.3013 30.309 16.6457 30.309 16.1402C30.309 15.9124 30.2146 15.6402 29.959 15.318C29.7035 14.9957 29.3201 14.6791 28.8479 14.3902Z" fill="black"/>
</svg>
