<svg width="241" height="241" viewBox="0 0 241 241" fill="none" xmlns="http://www.w3.org/2000/svg">
<g clip-path="url(#clip0_572_6183)">
<g clip-path="url(#clip1_572_6183)">
<g clip-path="url(#clip2_572_6183)">
<path d="M0.660156 48.3901C0.660156 21.8801 22.1502 0.390137 48.6602 0.390137H192.66C219.17 0.390137 240.66 21.8801 240.66 48.3901V240.39H0.660156V48.3901Z" fill="white"/>
<path d="M197.2 49.3901H44.1202C39.4478 49.3901 35.6602 53.1778 35.6602 57.8501V82.8501C35.6602 87.5225 39.4478 91.3101 44.1202 91.3101H197.2C201.872 91.3101 205.66 87.5225 205.66 82.8501V57.8501C205.66 53.1778 201.872 49.3901 197.2 49.3901Z" fill="white"/>
<path d="M197.2 49.3901H44.1202C39.4478 49.3901 35.6602 53.1778 35.6602 57.8501V82.8501C35.6602 87.5225 39.4478 91.3101 44.1202 91.3101H197.2C201.872 91.3101 205.66 87.5225 205.66 82.8501V57.8501C205.66 53.1778 201.872 49.3901 197.2 49.3901Z" stroke="#F1F1F1" stroke-width="2"/>
<path d="M57.3111 70.3501C57.3111 66.9839 54.5823 64.2551 51.2161 64.2551C47.8499 64.2551 45.1211 66.9839 45.1211 70.3501C45.1211 73.7163 47.8499 76.4451 51.2161 76.4451C54.5823 76.4451 57.3111 73.7163 57.3111 70.3501Z" fill="white"/>
<path d="M57.3111 70.3501C57.3111 66.9839 54.5823 64.2551 51.2161 64.2551C47.8499 64.2551 45.1211 66.9839 45.1211 70.3501C45.1211 73.7163 47.8499 76.4451 51.2161 76.4451C54.5823 76.4451 57.3111 73.7163 57.3111 70.3501Z" stroke="#D9D9D9" stroke-width="2"/>
<path d="M73.2461 65.5033V63.7812H76.6901V75.8512H74.7861V65.5023L73.2461 65.5033ZM92.1581 67.6553C91.8601 67.0813 91.4461 66.6513 90.9171 66.3643C90.3871 66.0663 89.7741 65.9173 89.0791 65.9173C88.3171 65.9173 87.6391 66.0883 87.0431 66.4303C86.4461 66.7735 85.9583 67.2786 85.6361 67.8873C85.3041 68.5173 85.1391 69.2453 85.1391 70.0723C85.1391 70.9003 85.3041 71.6343 85.6361 72.2743C85.9781 72.9043 86.4461 73.3893 87.0431 73.7313C87.6391 74.0733 88.3171 74.2442 89.0791 74.2442C90.1051 74.2442 90.9391 73.9573 91.5791 73.3843C92.2191 72.8093 92.6111 72.0312 92.7541 71.0492H88.4341V69.5433H94.7741V71.0163C94.6555 71.9034 94.3263 72.7493 93.8141 73.4833C93.3019 74.2375 92.6147 74.8565 91.8111 75.2873C90.9941 75.7293 90.0831 75.9492 89.0791 75.9492C87.9971 75.9492 87.0091 75.7013 86.1161 75.2043C85.2305 74.7051 84.4934 73.9797 83.9801 73.1022C83.4611 72.2082 83.2021 71.1983 83.2021 70.0723C83.2021 68.9473 83.4621 67.9373 83.9801 67.0423C84.491 66.1673 85.2291 65.4468 86.1161 64.9573C87.0205 64.4495 88.0419 64.1869 89.0791 64.1953C90.3041 64.1953 91.3911 64.4992 92.3401 65.1052C93.3001 65.7022 93.9961 66.5523 94.4261 67.6553H92.1581ZM102.794 69.9403C103.412 70.0503 103.936 70.3763 104.367 70.9173C104.797 71.4573 105.012 72.0702 105.012 72.7542C105.019 73.3184 104.857 73.8718 104.549 74.3443C104.251 74.8073 103.815 75.1773 103.241 75.4533C102.667 75.7183 101.999 75.8503 101.238 75.8503H96.6351V64.3442H101.022C101.806 64.3442 102.479 64.4772 103.042 64.7422C103.605 65.0062 104.03 65.3653 104.317 65.8183C104.604 66.2593 104.747 66.7563 104.747 67.3083C104.747 67.9703 104.571 68.5222 104.218 68.9632C103.864 69.4052 103.39 69.7303 102.794 69.9403ZM98.5231 69.1783H100.857C101.475 69.1783 101.955 69.0403 102.297 68.7653C102.65 68.4783 102.827 68.0693 102.827 67.5393C102.827 67.0213 102.65 66.6183 102.297 66.3313C101.955 66.0333 101.475 65.8843 100.857 65.8843H98.5231V69.1783ZM101.072 74.3112C101.712 74.3112 102.214 74.1563 102.579 73.8473C102.943 73.5373 103.125 73.1073 103.125 72.5563C103.125 71.9933 102.932 71.5462 102.546 71.2152C102.159 70.8842 101.646 70.7183 101.006 70.7183H98.5231V74.3112H101.072Z" fill="#6C6D75"/>
<path d="M197.2 101.77H44.1202C38.8955 101.77 34.6602 106.005 34.6602 111.23V136.23C34.6602 141.455 38.8955 145.69 44.1202 145.69H197.2C202.425 145.69 206.66 141.455 206.66 136.23V111.23C206.66 106.005 202.425 101.77 197.2 101.77Z" fill="#EDA619"/>
<path d="M57.3111 123.73C57.3111 120.364 54.5823 117.635 51.2161 117.635C47.8499 117.635 45.1211 120.364 45.1211 123.73C45.1211 127.096 47.8499 129.825 51.2161 129.825C54.5823 129.825 57.3111 127.096 57.3111 123.73Z" fill="#E0D700" fill-opacity="0.05"/>
<path d="M57.3111 123.73C57.3111 120.364 54.5823 117.635 51.2161 117.635C47.8499 117.635 45.1211 120.364 45.1211 123.73C45.1211 127.096 47.8499 129.825 51.2161 129.825C54.5823 129.825 57.3111 127.096 57.3111 123.73Z" stroke="#E0D700" stroke-width="2"/>
<path d="M81.4906 119.165H76.1266V121.996C76.3586 121.709 76.6896 121.477 77.1196 121.3C77.5496 121.113 78.0076 121.019 78.4936 121.019C79.3766 121.019 80.0996 121.212 80.6626 121.598C81.2256 121.985 81.6336 122.481 81.8876 123.088C82.1436 123.696 82.2729 124.35 82.2676 125.009C82.2676 126.278 81.9036 127.299 81.1756 128.071C80.4586 128.844 79.4316 129.23 78.0956 129.23C76.8386 129.23 75.8336 128.916 75.0836 128.287C74.3336 127.657 73.9076 126.835 73.8086 125.82H76.0606C76.1596 126.261 76.3806 126.615 76.7226 126.879C77.0756 127.144 77.5226 127.277 78.0626 127.277C78.7146 127.277 79.2056 127.073 79.5366 126.664C79.8676 126.256 80.0336 125.715 80.0336 125.042C80.0336 124.357 79.8626 123.839 79.5196 123.486C79.1896 123.121 78.6976 122.939 78.0466 122.939C77.5836 122.939 77.1966 123.055 76.8876 123.287C76.5786 123.519 76.3576 123.828 76.2256 124.214H74.0076V117.128H81.4906V119.165ZM96.2876 121.151C96.0392 120.683 95.6593 120.297 95.1946 120.042C94.7316 119.788 94.1906 119.661 93.5726 119.661C92.8886 119.661 92.2816 119.816 91.7516 120.125C91.2185 120.437 90.7871 120.897 90.5096 121.449C90.2116 122.023 90.0626 122.685 90.0626 123.436C90.0626 124.208 90.2126 124.882 90.5096 125.456C90.7995 126.01 91.2419 126.47 91.7846 126.78C92.3246 127.089 92.9546 127.244 93.6716 127.244C94.5546 127.244 95.2776 127.012 95.8416 126.548C96.4036 126.074 96.7736 125.417 96.9496 124.578H92.9766V122.807H99.2346V124.827C99.0778 125.638 98.7382 126.402 98.2416 127.061C97.7209 127.757 97.0468 128.324 96.2716 128.717C95.4766 129.125 94.5816 129.33 93.5896 129.33C92.4746 129.33 91.4646 129.081 90.5596 128.585C89.6766 128.088 88.9444 127.361 88.4406 126.482C87.9326 125.588 87.6786 124.573 87.6786 123.436C87.6786 122.299 87.9326 121.284 88.4406 120.39C88.9381 119.506 89.6718 118.778 90.5596 118.287C91.4646 117.78 92.4696 117.526 93.5726 117.526C94.8746 117.526 96.0066 117.846 96.9666 118.486C97.9266 119.115 98.5886 120.004 98.9536 121.151H96.2876ZM107.505 123.303C108.143 123.417 108.716 123.765 109.111 124.28C109.531 124.81 109.74 125.417 109.74 126.101C109.74 126.719 109.586 127.266 109.277 127.74C108.979 128.204 108.543 128.568 107.969 128.833C107.395 129.098 106.716 129.23 105.933 129.23H100.95V117.675H105.718C106.501 117.675 107.174 117.802 107.737 118.056C108.311 118.309 108.742 118.663 109.029 119.115C109.327 119.568 109.476 120.081 109.476 120.655C109.476 121.328 109.293 121.891 108.929 122.343C108.576 122.796 108.101 123.116 107.505 123.303ZM103.267 122.443H105.386C105.938 122.443 106.363 122.321 106.661 122.078C106.959 121.825 107.108 121.466 107.108 121.002C107.108 120.539 106.959 120.18 106.661 119.926C106.363 119.672 105.938 119.545 105.386 119.545H103.267V122.443ZM105.602 127.343C106.164 127.343 106.6 127.21 106.909 126.946C107.23 126.681 107.39 126.305 107.39 125.82C107.39 125.323 107.224 124.937 106.893 124.661C106.562 124.374 106.115 124.231 105.552 124.231H103.267V127.343H105.602Z" fill="black"/>
<path d="M197.2 156.15H44.1202C39.4478 156.15 35.6602 159.938 35.6602 164.61V189.61C35.6602 194.282 39.4478 198.07 44.1202 198.07H197.2C201.872 198.07 205.66 194.282 205.66 189.61V164.61C205.66 159.938 201.872 156.15 197.2 156.15Z" fill="white"/>
<path d="M197.2 156.15H44.1202C39.4478 156.15 35.6602 159.938 35.6602 164.61V189.61C35.6602 194.282 39.4478 198.07 44.1202 198.07H197.2C201.872 198.07 205.66 194.282 205.66 189.61V164.61C205.66 159.938 201.872 156.15 197.2 156.15Z" stroke="#F1F1F1" stroke-width="2"/>
<path d="M57.3111 177.11C57.3111 173.744 54.5823 171.015 51.2161 171.015C47.8499 171.015 45.1211 173.744 45.1211 177.11C45.1211 180.476 47.8499 183.205 51.2161 183.205C54.5823 183.205 57.3111 180.476 57.3111 177.11Z" fill="white"/>
<path d="M57.3111 177.11C57.3111 173.744 54.5823 171.015 51.2161 171.015C47.8499 171.015 45.1211 173.744 45.1211 177.11C45.1211 180.476 47.8499 183.205 51.2161 183.205C54.5823 183.205 57.3111 180.476 57.3111 177.11Z" stroke="#D9D9D9" stroke-width="2"/>
<path d="M73.2461 172.263V170.542H76.6901V182.61H74.7861V172.263H73.2461ZM79.2821 176.419C79.2821 174.509 79.6021 173.019 80.2421 171.949C80.8941 170.867 82.0081 170.326 83.5871 170.326C85.1651 170.326 86.2741 170.867 86.9141 171.949C87.5651 173.019 87.8911 174.509 87.8911 176.419C87.8911 178.35 87.5651 179.862 86.9141 180.955C86.2741 182.036 85.1641 182.577 83.5871 182.577C82.0081 182.577 80.8941 182.036 80.2431 180.955C79.6031 179.862 79.2821 178.35 79.2821 176.419ZM86.0371 176.419C86.0371 175.525 85.9761 174.769 85.8551 174.151C85.7451 173.533 85.5121 173.03 85.1591 172.644C84.8061 172.247 84.2821 172.048 83.5871 172.048C82.8911 172.048 82.3671 172.247 82.0141 172.644C81.6611 173.03 81.4241 173.533 81.3021 174.151C81.1921 174.769 81.1361 175.525 81.1361 176.419C81.1361 177.346 81.1921 178.124 81.3021 178.753C81.4121 179.382 81.6441 179.89 81.9971 180.276C82.3621 180.662 82.8911 180.855 83.5871 180.855C84.2821 180.855 84.8071 180.662 85.1591 180.276C85.5231 179.89 85.7611 179.382 85.8711 178.753C85.9811 178.124 86.0371 177.346 86.0371 176.419ZM102.764 174.416C102.466 173.842 102.052 173.411 101.522 173.124C100.992 172.826 100.38 172.677 99.6851 172.677C98.9231 172.677 98.2451 172.848 97.6481 173.19C97.0513 173.534 96.5637 174.039 96.2411 174.647C95.9101 175.276 95.7451 176.005 95.7451 176.833C95.7451 177.66 95.9101 178.394 96.2411 179.034C96.5831 179.664 97.0521 180.149 97.6481 180.491C98.2441 180.833 98.9231 181.004 99.6851 181.004C100.711 181.004 101.544 180.718 102.184 180.144C102.825 179.57 103.216 178.792 103.36 177.809H99.0391V176.303H105.38V177.776C105.261 178.663 104.931 179.509 104.419 180.243C103.907 180.998 103.22 181.617 102.416 182.047C101.599 182.489 100.689 182.71 99.6851 182.71C98.6031 182.71 97.6151 182.461 96.7211 181.965C95.8359 181.465 95.0991 180.74 94.5861 179.862C94.0661 178.968 93.8081 177.958 93.8081 176.833C93.8081 175.707 94.0671 174.697 94.5861 173.803C95.0966 172.928 95.8343 172.207 96.7211 171.717C97.6259 171.21 98.6477 170.947 99.6851 170.956C100.91 170.956 101.997 171.259 102.946 171.866C103.906 172.462 104.601 173.312 105.032 174.416H102.764ZM113.399 176.7C114.018 176.811 114.542 177.136 114.972 177.677C115.395 178.196 115.624 178.846 115.618 179.515C115.618 180.099 115.463 180.629 115.154 181.104C114.856 181.567 114.42 181.937 113.846 182.213C113.273 182.478 112.605 182.61 111.843 182.61H107.241V171.105H111.628C112.412 171.105 113.085 171.237 113.648 171.502C114.211 171.767 114.636 172.125 114.923 172.578C115.209 173.019 115.353 173.516 115.353 174.068C115.353 174.73 115.176 175.282 114.823 175.723C114.47 176.165 113.995 176.49 113.399 176.7ZM109.128 175.939H111.463C112.081 175.939 112.561 175.801 112.903 175.525C113.256 175.238 113.433 174.829 113.433 174.3C113.433 173.781 113.256 173.378 112.903 173.091C112.561 172.793 112.081 172.644 111.463 172.644H109.128V175.939ZM111.678 181.071C112.318 181.071 112.82 180.916 113.184 180.607C113.548 180.298 113.731 179.868 113.731 179.316C113.731 178.753 113.537 178.306 113.151 177.975C112.765 177.644 112.252 177.478 111.612 177.478H109.128V181.071H111.678Z" fill="#6C6D75"/>
</g>
</g>
</g>
<defs>
<clipPath id="clip0_572_6183">
<rect width="240" height="240" fill="white" transform="translate(0.660156 0.390137)"/>
</clipPath>
<clipPath id="clip1_572_6183">
<rect width="240" height="240" fill="white" transform="translate(0.660156 0.390137)"/>
</clipPath>
<clipPath id="clip2_572_6183">
<rect width="240" height="240" fill="white" transform="translate(0.660156 0.390137)"/>
</clipPath>
</defs>
</svg>
